<svg viewBox="0 0 638.51 654.01"><g id="Layer_2" data-name="Layer 2"><g id="Layer_2-2" data-name="Layer 2"><path class="cls-1" d="M275.79,20.93l5.48-7.47V7L272,0l-9.52,7.6V14l5.63,6.89-.05,18.8-1.37,5.15-2.51,102.25-4.78,4.06v10.49l-18.59,5.41H217.87l-8.21-7.34-8.61,11.85,8,11.33,8-5.41h24.07l18,5.41L258,433.8c-.69,29.19-.44,61.06,1.32,95.19A1252.74,1252.74,0,0,0,272,654c4.9-30.9,9.15-65.63,11.82-103.73,3-42.76,3.45-81.95,2.53-116.61l.07-251.38,13.5-3.91,26.87-1,6.91,5.15L342.44,172l-8.09-11.68-7.69,6.53-27.39.17-14.78-5.37-.09-11.59-4.9-2.7-1.95-103L276.08,39Z"/><polygon class="cls-2" points="242.52 389.19 241.41 387.27 199.84 315.27 189.9 298.05 189.31 298.05 189.31 297.03 179.13 279.4 148.33 226.05 138.39 208.83 107.13 154.7 96.96 137.08 96.82 136.83 86.88 119.62 83.32 113.46 1.73 113.46 5.29 119.62 14.78 136.06 15.22 136.83 24.96 153.69 56.79 208.83 66.73 226.05 96.96 278.4 107.13 296.02 108.3 298.05 118.25 315.27 159.81 387.27 169.75 404.48 179.13 420.73 189.31 438.36 210.93 475.81 211.32 476.48 221.26 493.7 242.52 530.52 251.92 546.8 251.92 405.47 251.35 404.48 242.52 389.19"/><polygon class="cls-1" points="307.28 384.75 309.53 387.01 328.19 405.67 379.92 457.4 382.93 460.41 453.32 530.79 463.27 540.75 467.13 544.61 483.97 561.44 536.55 614.03 636.09 614.03 583.51 561.44 566.67 544.61 543.6 521.54 533.66 511.59 496.29 474.22 479.46 457.4 463.27 441.21 453.32 431.25 409.07 387.01 392.24 370.18 357.05 334.98 382.93 309.1 392.24 299.79 409.07 282.95 453.32 238.71 463.27 228.76 621.23 70.79 521.74 70.75 379.92 212.57 328.19 264.29 309.53 282.95 307.28 285.21 292.69 299.79 292.66 299.82 292.66 370.15 292.69 370.18 307.28 384.75"/><path class="cls-1" d="M308,384c-.09-.73,231.29,231.28,228.57,229h99.53l-.7,1.71-279-279-.71-.71.71-.71L620.53,70.09l.7,1.7-99.49,0,.7-.29C447.26,146,366.69,224.11,293.37,300.52l.29-.7v70.33l-.29-.71L308,384Zm-1.42,1.42L292,370.85l-.29-.29V299.39c19.79-18.58,39.08-37.65,58.27-56.84C405,187.48,467,125.08,521.32,69.75c.42-.13,99.47.14,99.92,0h2.41l-1.71,1.71c-.54-.56-265.84,268.29-264.19,262.78l279,279,1.71,1.71H536.14c-.19.12-229.34-229.56-229.57-229.57Z"/></g></g></svg>